<svg xmlns="http://www.w3.org/2000/svg" width="19.077" height="17.503" viewBox="0 0 19.077 17.503"><path d="M16.831,4.5a5.712,5.712,0,0,0-4.292,1.994A5.712,5.712,0,0,0,8.246,4.5,5.2,5.2,0,0,0,3,9.746c0,3.606,3.243,6.543,8.155,11.007L12.539,22l1.383-1.259c4.912-4.455,8.155-7.392,8.155-11A5.2,5.2,0,0,0,16.831,4.5Zm-4.2,14.832-.1.1-.1-.1C7.9,15.221,4.908,12.5,4.908,9.746A3.26,3.26,0,0,1,8.246,6.408a3.729,3.729,0,0,1,3.405,2.251h1.784a3.705,3.705,0,0,1,3.4-2.251,3.26,3.26,0,0,1,3.338,3.338C20.169,12.5,17.174,15.221,12.634,19.332Z" transform="translate(-3 -4.5)" fill="#596375"/></svg>